# xmcd
#
# Track frame offsets:
#	150
#	14128
#	27750
#	45063
#	68332
#	82543
#	101658
#	115525
#	130050
#	145529
#	159110
#	170091
#	185513
#	201451
#	217243
#	226153
#	238799
#	248119
#	261909
#	277619
#	290858
#	309734
#	324637
#
# Disc length: 4519 seconds
#
# Revision: 0
# Processed by: cddbd v1.5.1PL0 Copyright (c) Steve Scherf et al.
# Submitted via: dBpowerAMP V4.0
#
DISCID=3a11a517
DTITLE=Tom Jones - Do Ya Think I'm Sexy
DYEAR=1900
DGENRE=Pop
TTITLE0=Tom Jones - Withc Queen Of New Orleans
TTITLE1=Tom Jones - Do Ya Think I'm Sexy
TTITLE2=Tom Jones - You've Got A Friend
TTITLE3=Tom Jones - She's A Lady
TTITLE4=Tom Jones - Listen To The Music
TTITLE5=Tom Jones - Kiss An Angel Good Morning
TTITLE6=Tom Jones - Spanish Harlem
TTITLE7=Tom Jones - For Once In My Life
TTITLE8=Tom Jones - I'm So Tired Of Being Alone
TTITLE9=Tom Jones - I Love A Rainy Night
TTITLE10=Tom Jones - 9 To 5
TTITLE11=Tom Jones -  My ay
TTITLE12=Tom Jones - Sexbomb
TTITLE13=Tom Jones - Kiss
TTITLE14=Tom Jones - Its Not Unusual
TTITLE15=Tom Jones - Help Yourself
TTITLE16=Tom Jones - Whats New Pussycat
TTITLE17=Tom Jones - Green, Green Grass Of Home
TTITLE18=Tom Jones - Detroit City
TTITLE19=Tom Jones - Funny Familiar
TTITLE20=Tom Jones - I'll Never Fall In Lova Again
TTITLE21=Tom Jones - Im Coming Home
TTITLE22=Tom Jones - Love Me Tonight
EXTD=
EXTT0=
EXTT1=
EXTT2=
EXTT3=
EXTT4=
EXTT5=
EXTT6=
EXTT7=
EXTT8=
EXTT9=
EXTT10=
EXTT11=
EXTT12=
EXTT13=
EXTT14=
EXTT15=
EXTT16=
EXTT17=
EXTT18=
EXTT19=
EXTT20=
EXTT21=
EXTT22=
PLAYORDER=
